<?xml version="1.0" encoding="iso-8859-1"?>
<!-- Generator: Adobe Illustrator 19.0.0, SVG Export Plug-In . SVG Version: 6.00 Build 0)  -->
<svg version="1.1" id="Layer_1" xmlns="http://www.w3.org/2000/svg" xmlns:xlink="http://www.w3.org/1999/xlink" x="0px" y="0px"
	 viewBox="0 0 473.961 473.961" style="enable-background:new 0 0 473.961 473.961;" xml:space="preserve">
<g>
	<circle style="fill:#A2D4DE;" cx="236.994" cy="236.992" r="236.966"/>
	<path style="fill:#A2D4DE;" d="M458.057,322.326c10.234-26.492,15.902-55.251,15.902-85.346C473.959,106.094,367.862,0,236.983,0
		S0.002,106.094,0.002,236.981c0,26.866,4.535,52.654,12.774,76.736c59.58-31.412,134.108-46.394,214.998-46.394
		C315.735,267.323,396.183,285.025,458.057,322.326z"/>
</g>
<path style="fill:#6CC077;" d="M236.983,473.961c100.781,0,186.811-62.944,221.074-151.635c-61.87-37.302-142.322-55-230.279-55
	c-80.889,0-155.418,14.982-214.994,46.39C44.671,406.916,132.969,473.961,236.983,473.961z"/>
<path style="fill:#857856;" d="M235.83,275.648c0,0,9.631,121.345-53.937,135.792h11.558
	c63.565-14.447,53.937-135.792,53.937-135.792H235.83z"/>
<path style="fill:#EDB04E;" d="M409.444,158.097c-6.312,3.113-36.172,27.281-44.77-3.749c0,0-35.045,36.43-44.198-1.28
	c0,0-5.833,11.626-22.952,26.858c5.063-32.841,10.627-50.607,10.627-50.607c-35.663,37.227-39.049-41.863-39.049-41.863
	c-26.159,9.901-27.225-33.055-28.804-40.961c0,0-1.893,50.783-29.747,39.251c0,0,3.697,61.346-39.988,40.976
	c0,0,5.557,16.647,10.062,49.556c-16.056-15.712-21.227-23.21-21.227-23.21c-9.152,37.709-44.198,1.28-44.198,1.28
	c-8.599,31.03-38.458,6.862-44.77,3.749c0,0,33.455,31.607,9.272,51.696c0,0,39.367,29.519,11.629,50.753
	c0,0,83.849,22.428,50.293,68.272c0,0,64.631,6.788,82.386-6.847c4.412-3.383,9.542-12.688,14.05-12.554
	c4.973,0.146,15.753,7.39,19.603,13.351c12.202,18.922,80.583,6.05,80.583,6.05c-33.556-45.844,50.293-68.272,50.293-68.272
	c-27.738-21.238,11.629-50.753,11.629-50.753C375.989,189.703,409.444,158.097,409.444,158.097z"/>
<g>
	<path style="fill:#E59C31;" d="M236.193,310.192c0,0,8.887-107.183,4.209-261.53c0,0,14.032,228.951,6.705,264.498
		C247.108,313.159,238.532,307.232,236.193,310.192z"/>
	<polygon style="fill:#E59C31;" points="409.444,158.097 241.806,267.323 243.677,279.483 	"/>
	<polygon style="fill:#E59C31;" points="75.297,161.618 237.585,294.188 240.87,284.16 	"/>
</g>
<g>
</g>
<g>
</g>
<g>
</g>
<g>
</g>
<g>
</g>
<g>
</g>
<g>
</g>
<g>
</g>
<g>
</g>
<g>
</g>
<g>
</g>
<g>
</g>
<g>
</g>
<g>
</g>
<g>
</g>
</svg>
