<?xml version="1.0" encoding="iso-8859-1"?>
<!-- Generator: Adobe Illustrator 19.0.0, SVG Export Plug-In . SVG Version: 6.00 Build 0)  -->
<svg version="1.1" id="Layer_1" xmlns="http://www.w3.org/2000/svg" xmlns:xlink="http://www.w3.org/1999/xlink" x="0px" y="0px"
	 viewBox="0 0 512 512" style="enable-background:new 0 0 512 512;" xml:space="preserve">
<circle style="fill:#B2E3FF;" cx="256" cy="256" r="256"/>
<path style="fill:#FFFFFF;" d="M243.236,78.408c0.296-3.328,0.472-6.688,0.472-10.088c0-24.7-7.908-47.512-21.276-66.052
	C120.592,15.608,37.636,88.78,9.952,185.364c4.152,0.752,8.416,1.216,12.788,1.216h190.648c32.376,0,58.612-26,58.612-58.18
	C272,107.072,260.436,88.564,243.236,78.408z"/>
<path style="fill:#F5F5F5;" d="M243.236,78.408c0.296-3.328,0.472-6.688,0.472-10.088c0-24.7-7.908-47.512-21.276-66.052
	c-4.892,0.64-9.744,1.408-14.544,2.312c12.384,18.104,19.652,40.064,19.652,63.74c0,3.412-0.176,6.76-0.468,10.088
	c17.2,10.156,28.76,28.664,28.76,49.992c0,32.18-26.24,58.18-58.612,58.18h16.168c32.376,0,58.612-26,58.612-58.18
	C272,107.072,260.436,88.564,243.236,78.408z"/>
<path style="fill:#FFFFFF;" d="M512,256c0-14.228-1.212-28.168-3.444-41.756c-5.296-1.416-10.828-2.244-16.564-2.244
	c-31.272,0-57.384,22.368-63.512,52.132c-0.192-0.004-0.388-0.032-0.576-0.032c-22.804,0-41.288,18.428-41.288,41.24
	c0,22.8,18.484,41.24,41.288,41.24h67.556C506.116,318.416,512,287.9,512,256z"/>
<path style="fill:#F5F5F5;" d="M430.324,257.22c-0.816,2.704-1.56,5.636-1.836,6.892c-0.192,0-0.396,0-0.584,0
	c-7.408,0-14.336,1.976-20.344,5.388c5.188-1.932,10.852-3.028,16.8-3.028c12.8,0,24.332,4.944,32.492,12.872
	C452.184,268.952,440.116,258.328,430.324,257.22z"/>
<g>
	<path style="fill:#E6E6E6;" d="M212,132c-0.944,0-1.892-0.332-2.656-1.012l-36-32c-1.652-1.464-1.8-3.996-0.332-5.644
		c1.468-1.652,3.992-1.804,5.648-0.332l36,32c1.652,1.464,1.8,3.996,0.332,5.644C214.2,131.548,213.1,132,212,132z"/>
	<path style="fill:#E6E6E6;" d="M212,232c-0.944,0-1.892,0.332-2.656,1.012l-36,32c-1.652,1.464-1.8,3.996-0.332,5.644
		c1.468,1.652,3.992,1.804,5.648,0.332l36-32c1.652-1.464,1.8-3.996,0.332-5.644C214.2,232.452,213.1,232,212,232z"/>
</g>
<path style="fill:#CC584C;" d="M252,111.988c-13.088-0.988-26.384-1.232-40.016-0.24C205.392,113.652,200,121.4,200,128
	c0,44.8,0,67.2,0,112c0,6.6,5.396,9.128,11.988,6.58c13.536-2.344,26.844-3.416,40.012-3.736V111.988z"/>
<path style="fill:#F5F5F5;" d="M252,242.844c24.312-0.572,48.144,1.52,72,3.48V122.728c-23.78-4.384-47.52-8.896-72-10.74V242.844z"
	/>
<path style="fill:#CC584C;" d="M324,246.324c23.8,1.956,47.636,3.692,72,2.504V132.46c-24.564-1.22-48.308-5.368-72-9.736V246.324z"
	/>
<path style="fill:#F5F5F5;" d="M428.016,132.236c-10.868,0.788-21.508,0.752-32.016,0.232v116.368
	c10.564-0.512,21.212-1.52,32.02-3.388c6.588-2.556,11.98-10.844,11.98-17.44c0-35.2,0-52.8,0-88
	C440,133.4,434.608,130.332,428.016,132.236z"/>
<path style="fill:#BF5347;" d="M240,237.628c-13.12,0.308-26.376,1.384-39.856,3.708v0.004c0.088,0.692,0.244,1.328,0.46,1.912
	c0,0,0,0.008,0.004,0.008c0.212,0.576,0.488,1.084,0.812,1.552c0.016,0.02,0.032,0.044,0.048,0.068
	c0.312,0.428,0.672,0.808,1.076,1.136c0.06,0.052,0.124,0.088,0.18,0.132c0.376,0.284,0.784,0.536,1.228,0.74
	c0.132,0.056,0.276,0.092,0.416,0.144c0.4,0.148,0.812,0.28,1.252,0.364c0.244,0.048,0.504,0.056,0.76,0.08
	c0.38,0.036,0.756,0.08,1.16,0.072c0.392-0.016,0.804-0.084,1.216-0.14c0.308-0.044,0.604-0.056,0.92-0.124
	c0.752-0.156,1.52-0.384,2.312-0.688c13.536-2.344,26.844-3.416,40.012-3.736v-5.264C248.008,237.536,244.012,237.536,240,237.628z"
	/>
<g>
	<path style="fill:#E6E6E6;" d="M176,88c-4.416,0-8,3.584-8,8v400.472c5.248,1.916,10.6,3.604,16,5.192V96
		C184,91.584,180.416,88,176,88z"/>
	<path style="fill:#E6E6E6;" d="M312,241.108c-19.916-1.636-39.824-3.344-60-3.54v5.268c24.312-0.576,48.144,1.52,72,3.48v-4.264
		C320,241.752,316,241.436,312,241.108z"/>
</g>
<path style="fill:#BF5347;" d="M384,243.608c-20.272,0.992-40.176-0.056-60-1.556v4.264c23.8,1.952,47.636,3.692,72,2.504v-6.06
	C391.988,243.124,387.984,243.42,384,243.608z"/>
<path style="fill:#E6E6E6;" d="M428.016,132.236c-0.116,0.008-0.228,0.008-0.34,0.016c0.2,0.776,0.328,1.612,0.328,2.54
	c0,35.2,0,52.796,0,88c0,6.6-5.388,14.888-11.98,17.436c-6.732,1.164-13.396,1.96-20.02,2.548v6.06
	c10.568-0.512,21.216-1.52,32.02-3.388c6.592-2.556,11.98-10.844,11.98-17.44c0-35.2,0-52.8,0-88
	C440,133.4,434.608,130.332,428.016,132.236z"/>
<g>
</g>
<g>
</g>
<g>
</g>
<g>
</g>
<g>
</g>
<g>
</g>
<g>
</g>
<g>
</g>
<g>
</g>
<g>
</g>
<g>
</g>
<g>
</g>
<g>
</g>
<g>
</g>
<g>
</g>
</svg>
